<svg width="705.93" height="318.27" version="1.1" viewBox="0 0 705.93 318.27" xmlns="http://www.w3.org/2000/svg">
 <g transform="matrix(1.3333 0 0 1.3333 -54.068 -271.28)">
  <g fill="#fff" stroke-width="3.4388" aria-label="Operating System">
   <path d="m46.956 403.44c0-10.729 5.502-21.595 18.501-21.595 12.93 0 18.432 10.867 18.432 21.595s-5.502 21.595-18.432 21.595c-12.999 0-18.501-10.867-18.501-21.595zm-4.6767 0c0 13.48 7.7028 25.584 23.177 25.584 15.406 0 23.109-12.104 23.109-25.584s-7.7028-25.584-23.109-25.584c-15.474 0-23.177 12.104-23.177 25.584z"/>
   <path d="m95.03 441.13h4.3328v-19.876h0.13755c1.8569 5.1582 7.0839 7.7716 12.311 7.7716 10.798 0 15.956-8.6657 15.956-18.776 0-10.11-5.1582-18.776-15.956-18.776-5.7771 0-10.66 2.8886-12.655 7.7716h-0.13755v-6.74h-3.989zm28.404-30.88c0 7.359-3.37 15.131-11.623 15.131-9.1471 0-12.448-7.7716-12.448-15.131 0-8.0467 2.8198-15.131 12.448-15.131 8.253 0 11.623 7.7716 11.623 15.131z"/>
   <path d="m137.05 407.77c0.75653-6.4649 4.5392-12.655 11.692-12.655 6.9463 0 11.073 6.121 11.279 12.655zm27.304 3.6451c0.34387-9.9724-4.2641-19.945-15.612-19.945-11.279 0-16.025 9.4222-16.025 18.776 0 10.11 4.7455 18.776 16.025 18.776 9.0096 0 13.618-4.6767 15.474-12.723h-4.3328c-1.3755 5.4333-4.8143 9.0784-11.142 9.0784-8.253 0-11.692-7.6341-11.692-13.961z"/>
   <path d="m170.2 427.99h4.3328v-18.913c0-7.4277 5.3645-13.067 13.205-12.723v-4.3328c-6.3961-0.27511-11.21 3.0261-13.411 8.8032h-0.13755v-8.3218h-3.989z"/>
   <path d="m195.79 403.37c0.20633-5.7771 4.0578-8.253 9.491-8.253 5.1582 0 9.2847 1.4443 9.2847 7.2902 0 3.8514-1.9945 4.4704-5.5708 4.8143-9.3535 1.1004-19.051 1.5131-19.051 11.417 0 7.1526 5.2957 10.385 11.898 10.385 6.8775 0 9.8349-2.6135 12.93-7.2214h0.13755c0 3.6451 0.68776 6.1898 5.0894 6.1898 1.1692 0 1.7882-0.0688 2.8198-0.2751v-3.6451c-0.48142 0.20633-0.89408 0.2751-1.3755 0.2751-1.7194 0-2.5447-0.89408-2.5447-2.6135v-18.844c0-9.5598-6.8088-11.417-13.067-11.417-8.1843 0-13.893 3.5763-14.374 11.898zm18.776 10.867c0 6.9463-5.7084 11.142-12.38 11.142-4.1265 0-7.9092-2.6822-7.9092-7.0151 0-6.8775 9.1471-6.8775 16.506-8.1843 1.1692-0.20633 3.0949-0.5502 3.6451-1.5818h0.13756z"/>
   <path d="m234.44 381.85h-4.3328v10.66h-6.1898v3.6451h6.1898v24.278c-0.0688 6.0522 1.9257 7.978 7.7028 7.978 1.3067 0 2.5447-0.13755 3.8514-0.13755v-3.7139c-1.238 0.13755-2.4759 0.20632-3.7139 0.20632-3.0949-0.20632-3.5076-1.8569-3.5076-4.6767v-23.934h7.2214v-3.6451h-7.2214z"/>
   <path d="m247.99 385.83h4.3328v-6.9463h-4.3328zm0 42.159h4.3328v-35.488h-4.3328z"/>
   <path d="m260.57 427.99h4.3328v-20.701c0.20632-6.9463 4.1953-12.173 11.142-12.173 7.0151 0 9.0096 4.6767 9.0096 10.729v22.146h4.3328v-22.833c0-8.4594-3.0261-13.686-12.999-13.686-5.0206 0-9.6973 2.8886-11.348 7.1526h-0.13755v-6.121h-4.3328z"/>
   <path d="m327.56 392.51h-4.3328v6.121h-0.13755c-1.7194-3.9202-6.0522-7.1526-11.279-7.1526-10.248 0-16.025 8.1155-16.025 17.882 0 10.179 4.6767 18.225 16.025 18.225 5.1582 0 9.2847-2.8886 11.279-7.2902h0.13755v4.8143c0 8.7345-3.37 13.411-11.417 13.411-4.7455 0-9.491-1.8569-10.385-7.0839h-4.3328c0.5502 7.4965 7.6341 10.729 14.718 10.729 11.485 0 15.75-6.3961 15.75-17.056zm-15.75 31.43c-8.0467 0-11.692-6.9463-11.692-14.099 0-7.359 3.4388-14.718 11.692-14.718 8.253 0 11.417 7.7716 11.417 14.718 0 7.1526-3.9202 14.099-11.417 14.099z"/>
   <path d="m353.28 411.83c-0.5502 11.967 7.978 17.194 19.601 17.194 17.4 0 18.776-10.66 18.776-14.03 0-7.978-5.7771-11.073-12.723-12.93l-11.967-2.9573c-4.0578-0.89408-7.4278-2.8886-7.4278-7.4965 0-7.2902 5.9147-9.7661 12.311-9.7661 7.0151 0 13.067 3.8514 13.411 11.279h4.6767c0-10.11-8.3906-15.268-18.157-15.268-13.824 0-16.919 9.0096-16.919 13.824 0 7.7028 5.2957 10.385 11.073 11.829l10.935 2.6822c4.608 1.1004 10.11 3.3012 10.11 8.872 0 7.1526-7.8404 9.9724-12.999 9.9724-9.0096 0-16.231-3.0949-16.025-13.205z"/>
   <path d="m408.44 427.86-1.5131 4.0578c-1.4443 3.3012-2.3384 5.5708-6.1898 5.5708-1.0316 0-1.9257-0.13755-2.9574-0.34387v3.6451c0.75653 0.2751 1.5818 0.2751 3.3012 0.34388 5.4333 0 6.8088-1.7194 9.3535-7.7028l15.406-40.921h-4.3328l-10.935 30.261-11.692-30.261h-4.608z"/>
   <path d="m455.69 402.89c-0.34388-7.7028-5.8459-11.417-12.999-11.417-6.2586 0-13.342 2.751-13.342 9.9724 0 5.9835 4.2641 8.0467 9.9037 9.491l5.5708 1.238c3.9202 0.96285 7.7716 2.3384 7.7716 6.4649 0 4.9518-5.5708 6.74-9.6973 6.74-5.7771 0-10.11-3.0261-10.454-8.872h-4.3328c0.75653 8.7345 6.2586 12.517 14.58 12.517 6.6024 0 14.236-2.9573 14.236-10.66 0-6.1898-5.1582-9.0784-10.11-9.8349l-5.7771-1.3067c-3.0261-0.75653-7.359-2.2008-7.359-5.9835 0-4.608 4.5392-6.121 8.3906-6.121 4.9518 0 9.0784 2.4071 9.2847 7.7716z"/>
   <path d="m470.06 381.85h-4.3328v10.66h-6.1898v3.6451h6.1898v24.278c-0.0688 6.0522 1.9257 7.978 7.7028 7.978 1.3067 0 2.5447-0.13755 3.8514-0.13755v-3.7139c-1.238 0.13755-2.4759 0.20632-3.7139 0.20632-3.0949-0.20632-3.5076-1.8569-3.5076-4.6767v-23.934h7.2214v-3.6451h-7.2214z"/>
   <path d="m486.09 407.77c0.75653-6.4649 4.5392-12.655 11.692-12.655 6.9463 0 11.073 6.121 11.279 12.655zm27.304 3.6451c0.34387-9.9724-4.2641-19.945-15.612-19.945-11.279 0-16.025 9.4222-16.025 18.776 0 10.11 4.7455 18.776 16.025 18.776 9.0096 0 13.618-4.6767 15.474-12.723h-4.3328c-1.3755 5.4333-4.8143 9.0784-11.142 9.0784-8.253 0-11.692-7.6341-11.692-13.961z"/>
   <path d="m519.24 427.99h4.3328v-19.807c0-7.4277 3.1637-13.067 10.591-13.067 5.5708 0 7.4277 3.989 7.4277 8.8032v24.071h4.3328v-20.082c0-6.6024 2.132-12.792 9.6286-12.792 6.2586 0 8.3906 3.1637 8.3906 9.0096v23.865h4.3328v-24.071c0-8.3218-3.9202-12.448-11.761-12.448-4.6767 0-9.1471 2.2696-11.279 6.9463-1.3067-4.6767-5.502-6.9463-10.179-6.9463-5.7084 0-9.3534 2.6822-11.623 7.0151h-0.20633v-5.9835h-3.989z"/>
  </g>
  <g transform="scale(.94525 1)" fill="#46bbe7">
   <path d="m493.34 310c-29.503-1.2982-52.084 14.645-52.084 14.645l0.83398 1.1797s46.819-33.205 93.447 0.91602h2e-3c9.9492 7.2787 19.597 9.8458 28.629 9.2637 9.0318-0.58209 17.421-4.2899 24.951-9.4414l-0.81446-1.1934c-7.3839 5.0515-15.533 8.633-24.229 9.1934s-17.962-1.878-27.684-8.9902c-14.801-10.831-29.642-14.982-43.053-15.572z" color="#000000" style="-inkscape-stroke:none"/>
   <path transform="scale(.92878 1)" d="m529.15 315.63c-29.383-0.84314-51.199 13.854-51.199 13.854l11.473 16.512s33.703-24.393 72.348 0.21484l2e-3 2e-3c23.997 15.276 46.354 15.687 61.99 11.654s25.494-12.535 25.494-12.535l-13.178-15.186s-6.1146 5.3572-17.338 8.252c-11.223 2.8947-26.612 3.3032-46.17-9.1465h-2e-3c-15.145-9.6432-30.064-13.238-43.42-13.621z" color="#000000" style="-inkscape-stroke:none"/>
   <path d="m493.34 256.77c-29.503-1.2981-52.084 14.643-52.084 14.643l0.83398 1.1797s46.821-33.202 93.449 0.91602c9.9493 7.2782 19.597 9.8448 28.629 9.2617 9.0317-0.5831 17.421-4.2935 24.951-9.4414l-0.81446-1.1934c-7.384 5.0481-15.533 8.63-24.229 9.1914-8.6955 0.5614-17.962-1.8746-27.684-8.9863-14.801-10.83-29.642-14.98-43.053-15.57z" color="#000000" style="-inkscape-stroke:none"/>
   <path transform="scale(.92878 1)" d="m529.15 262.4c-29.383-0.8456-51.197 13.844-51.197 13.844l11.469 16.516s33.706-24.382 72.352 0.22266c23.997 15.277 46.356 15.686 61.992 11.65s25.494-12.539 25.494-12.539l-13.182-15.184s-6.1127 5.3595-17.336 8.2559c-11.223 2.8964-26.614 3.3059-46.172-9.1445-15.145-9.6423-30.064-13.237-43.42-13.621z" color="#000000" style="-inkscape-stroke:none"/>
   <path d="m493.34 203.53c-29.503-1.2962-52.084 14.65-52.084 14.65l0.83398 1.1797s46.819-33.214 93.447 0.9082c9.9493 7.2843 19.599 9.8523 28.631 9.2695 9.0318-0.58273 17.421-4.2921 24.951-9.4395l-0.81446-1.1934c-7.384 5.0476-15.533 8.6284-24.229 9.1895-8.6954 0.56102-17.962-1.8745-27.684-8.9922-14.801-10.831-29.642-14.983-43.053-15.572z" color="#000000" style="-inkscape-stroke:none"/>
   <path transform="scale(.92878 1)" d="m529.15 209.16c-29.383-0.84588-51.199 13.848-51.199 13.848l11.471 16.512s33.702-24.388 72.348 0.22461h2e-3c23.997 15.274 46.356 15.685 61.992 11.65 15.636-4.0345 25.492-12.537 25.492-12.537l-13.178-15.186s-6.1144 5.358-17.338 8.2539c-11.223 2.8958-26.613 3.306-46.17-9.1406l-2e-3 -2e-3c-15.144-9.6444-30.063-13.239-43.418-13.623z" color="#000000" style="-inkscape-stroke:none"/>
  </g>
  <g fill="#fff">
   <path d="m186.34 203.83 23.761-0.242 26.938 77.016-12.547 36.429z"/>
   <path d="m311.48 204.34-25.118 0.0586-52.906 155.51 24.875-0.0308 38.61-112.99 22.523 69.56 11.073-39.117-19.063-72.971z"/>
   <path d="m382.75 204.39h25.699l-54.199 155.02-25.199 0.235z"/>
  </g>
  <g transform="matrix(0 -1 .99723 0 0 0)" fill="#fff">
   <path d="m-203.71 40.663h-23.332v77.072c4e-3 6e-3 9e-3 0.0126 0.0132 0.0191-8e-3 15.383-9.579 30.164-26.738 38.616-17.171 8.4482-39.028 8.4479-56.197-1e-3 -17.18-8.4554-26.736-23.238-26.736-38.634h-0.0146v-53.676h82.645v-23.397h-105.96v23.397h0.0161v53.675l1e-3 1e-3h-3e-3c0 25.114 15.771 47.748 39.756 59.552h1e-3c23.978 11.8 52.813 11.8 76.792 0h1e-3l1e-3 -3e-3c23.966-11.805 39.753-34.43 39.753-59.551h1e-3z" color="#000000" fill="#fff" style="-inkscape-stroke:none"/>
  </g>
 </g>
</svg>
