<svg width="705.93" height="208.77" version="1.1" viewBox="0 0 705.93 208.77" xmlns="http://www.w3.org/2000/svg">
 <g transform="matrix(1.3333 0 0 1.3333 -54.068 -271.28)">
  <g transform="scale(.94525 1)" fill="#46bbe7">
   <path d="m493.34 310c-29.503-1.2982-52.084 14.645-52.084 14.645l0.83398 1.1797s46.819-33.205 93.447 0.91602h2e-3c9.9492 7.2787 19.597 9.8458 28.629 9.2637 9.0318-0.58209 17.421-4.2899 24.951-9.4414l-0.81446-1.1934c-7.3839 5.0515-15.533 8.633-24.229 9.1934s-17.962-1.878-27.684-8.9902c-14.801-10.831-29.642-14.982-43.053-15.572z" color="#000000" style="-inkscape-stroke:none"/>
   <path transform="scale(.92878 1)" d="m529.15 315.63c-29.383-0.84314-51.199 13.854-51.199 13.854l11.473 16.512s33.703-24.393 72.348 0.21484l2e-3 2e-3c23.997 15.276 46.354 15.687 61.99 11.654s25.494-12.535 25.494-12.535l-13.178-15.186s-6.1146 5.3572-17.338 8.252c-11.223 2.8947-26.612 3.3032-46.17-9.1465h-2e-3c-15.145-9.6432-30.064-13.238-43.42-13.621z" color="#000000" style="-inkscape-stroke:none"/>
   <path d="m493.34 256.77c-29.503-1.2981-52.084 14.643-52.084 14.643l0.83398 1.1797s46.821-33.202 93.449 0.91602c9.9493 7.2782 19.597 9.8448 28.629 9.2617 9.0317-0.5831 17.421-4.2935 24.951-9.4414l-0.81446-1.1934c-7.384 5.0481-15.533 8.63-24.229 9.1914-8.6955 0.5614-17.962-1.8746-27.684-8.9863-14.801-10.83-29.642-14.98-43.053-15.57z" color="#000000" style="-inkscape-stroke:none"/>
   <path transform="scale(.92878 1)" d="m529.15 262.4c-29.383-0.8456-51.197 13.844-51.197 13.844l11.469 16.516s33.706-24.382 72.352 0.22266c23.997 15.277 46.356 15.686 61.992 11.65s25.494-12.539 25.494-12.539l-13.182-15.184s-6.1127 5.3595-17.336 8.2559c-11.223 2.8964-26.614 3.3059-46.172-9.1445-15.145-9.6423-30.064-13.237-43.42-13.621z" color="#000000" style="-inkscape-stroke:none"/>
   <path d="m493.34 203.53c-29.503-1.2962-52.084 14.65-52.084 14.65l0.83398 1.1797s46.819-33.214 93.447 0.9082c9.9493 7.2843 19.599 9.8523 28.631 9.2695 9.0318-0.58273 17.421-4.2921 24.951-9.4395l-0.81446-1.1934c-7.384 5.0476-15.533 8.6284-24.229 9.1895-8.6954 0.56102-17.962-1.8745-27.684-8.9922-14.801-10.831-29.642-14.983-43.053-15.572z" color="#000000" style="-inkscape-stroke:none"/>
   <path transform="scale(.92878 1)" d="m529.15 209.16c-29.383-0.84588-51.199 13.848-51.199 13.848l11.471 16.512s33.702-24.388 72.348 0.22461h2e-3c23.997 15.274 46.356 15.685 61.992 11.65 15.636-4.0345 25.492-12.537 25.492-12.537l-13.178-15.186s-6.1144 5.358-17.338 8.2539c-11.223 2.8958-26.613 3.306-46.17-9.1406l-2e-3 -2e-3c-15.144-9.6444-30.063-13.239-43.418-13.623z" color="#000000" style="-inkscape-stroke:none"/>
  </g>
  <g fill="#fff">
   <path d="m186.34 203.83 23.761-0.242 26.938 77.016-12.547 36.429z"/>
   <path d="m311.48 204.34-25.118 0.0586-52.906 155.51 24.875-0.0308 38.61-112.99 22.523 69.56 11.073-39.117-19.063-72.971z"/>
   <path d="m382.75 204.39h25.699l-54.199 155.02-25.199 0.235z"/>
  </g>
  <g transform="matrix(0 -1 .99723 0 0 0)" fill="#fff">
   <path d="m-203.71 40.663h-23.332v77.072c4e-3 6e-3 9e-3 0.0126 0.0132 0.0191-8e-3 15.383-9.579 30.164-26.738 38.616-17.171 8.4482-39.028 8.4479-56.197-1e-3 -17.18-8.4554-26.736-23.238-26.736-38.634h-0.0146v-53.676h82.645v-23.397h-105.96v23.397h0.0161v53.675l1e-3 1e-3h-3e-3c0 25.114 15.771 47.748 39.756 59.552h1e-3c23.978 11.8 52.813 11.8 76.792 0h1e-3l1e-3 -3e-3c23.966-11.805 39.753-34.43 39.753-59.551h1e-3z" color="#000000" fill="#fff" style="-inkscape-stroke:none"/>
  </g>
 </g>
</svg>
